<svg xmlns="http://www.w3.org/2000/svg" viewBox="0 0 64 64" role="img" aria-label="Firefox logo">
  <rect width="64" height="64" rx="12" fill="#ffffff"/>
  <defs>
    <linearGradient id="fx" x1="0" y1="0" x2="1" y2="1">
      <stop offset="0" stop-color="#ff9a00"/>
      <stop offset="1" stop-color="#ff2d55"/>
    </linearGradient>
  </defs>
  <circle cx="34" cy="34" r="16" fill="url(#fx)"/>
  <path d="M20 38c0-8 5-14 12-16-2 3-1 7 2 9-2-1-5 0-6 3-1 2 0 5 2 6 3 2 7 1 9-2 1-2 1-5-1-7 4 1 7 5 7 10 0 7-5 12-12 12-7 0-13-6-13-15z" fill="#6022c7" opacity=".35"/>
</svg>
